<?xml version="1.0" standalone="no"?>
<!DOCTYPE svg PUBLIC "-//W3C//DTD SVG 20010904//EN"
 "http://www.w3.org/TR/2001/REC-SVG-20010904/DTD/svg10.dtd">
<svg version="1.0" xmlns="http://www.w3.org/2000/svg"
 width="300.000000pt" height="300.000000pt" viewBox="0 0 300.000000 300.000000"
 preserveAspectRatio="xMidYMid meet">
<metadata>
Created by potrace 1.11, written by Peter Selinger 2001-2013
</metadata>
<g transform="translate(0.000000,300.000000) scale(0.100000,-0.100000)"
fill="#000000" stroke="none">
<path d="M231 2949 c-112 -19 -161 -71 -180 -189 -15 -90 -15 -2430 0 -2520
19 -122 67 -170 189 -189 90 -15 2430 -15 2520 0 122 19 170 67 189 189 15 90
15 2430 0 2520 -19 122 -67 170 -189 189 -81 13 -2450 13 -2529 0z m833 -769
c143 -36 271 -125 344 -238 18 -30 32 -55 30 -56 -6 -5 -153 -102 -165 -110
-8 -4 -18 5 -28 25 -29 56 -98 121 -158 150 -174 82 -368 51 -497 -80 -201
-204 -198 -570 5 -777 131 -133 312 -166 483 -88 92 41 122 70 198 192 1 2
174 -95 182 -103 11 -11 -60 -114 -109 -160 -194 -179 -503 -227 -727 -114
-147 73 -244 170 -321 319 -69 132 -86 205 -86 360 1 125 3 141 32 223 43 122
85 189 178 283 130 132 276 191 471 193 60 1 117 -6 168 -19z m1449 -10 c178
-67 267 -319 177 -505 -26 -54 -84 -121 -121 -141 -16 -8 -29 -18 -29 -22 1
-4 23 -17 50 -30 98 -46 168 -143 190 -262 30 -163 -43 -310 -189 -385 -103
-52 -135 -55 -543 -55 l-378 0 0 710 0 710 395 0 c371 0 397 -1 448 -20z"/>
<path d="M1900 1784 l0 -205 233 3 c264 3 275 6 332 87 27 39 30 50 30 120 0
68 -3 83 -28 120 -52 79 -60 81 -329 81 l-238 0 0 -206z"/>
<path d="M1900 1185 l0 -215 249 0 c152 0 261 4 278 11 38 14 81 56 105 103
31 61 23 170 -17 228 -18 25 -49 52 -75 66 -42 21 -55 22 -292 22 l-248 0 0
-215z"/>
</g>
</svg>
